<svg height="512" viewBox="0 0 64 64" width="512" xmlns="http://www.w3.org/2000/svg"><path d="m53 25c0-12.15-8.85-22-21-22s-21 9.85-21 22c0 14 21 36 21 36s21-22 21-36zm-37-1a16 16 0 1 1 16 16 16 16 0 0 1 -16-16z" fill="#9bc9ff"/><path d="m35 33h5v-12h2l-10-8-10 8h2v12h5v-8h6z" fill="#9bc9ff"/><g fill="#57a4ff"><path d="m32 2c-12.336 0-22 10.1-22 23 0 14.237 20.408 35.78 21.277 36.69a1 1 0 0 0 1.446 0c.869-.91 21.277-22.453 21.277-36.69 0-12.9-9.664-23-22-23zm0 57.53c-3.668-4.009-20-22.535-20-34.53 0-11.972 8.6-21 20-21s20 9.028 20 21c0 11.99-16.333 30.522-20 34.53z"/><path d="m32 7a17 17 0 1 0 17 17 17.019 17.019 0 0 0 -17-17zm0 32a15 15 0 1 1 15-15 15.017 15.017 0 0 1 -15 15z"/><path d="m2 60h4v2h-4z"/><path d="m8 60h19v2h-19z"/><path d="m58 60h4v2h-4z"/><path d="m37 60h19v2h-19z"/><path d="m42.625 20.219-10-8a1 1 0 0 0 -1.25 0l-10 8a1 1 0 0 0 .625 1.781h1v11a1 1 0 0 0 1 1h16a1 1 0 0 0 1-1v-11h1a1 1 0 0 0 .625-1.781zm-8.625 11.781h-4v-6h4zm5-11v11h-3v-7a1 1 0 0 0 -1-1h-6a1 1 0 0 0 -1 1v7h-3v-11a1 1 0 0 0 -.4-.8l7.4-5.919 7.4 5.919a1 1 0 0 0 -.4.8z"/></g></svg>